<svg xmlns="http://www.w3.org/2000/svg" width="39" height="22" viewBox="0 0 39 22"><g transform="translate(-157.914 -631.423)"><path d="M0,11a1,1,0,0,1-.793-.39,1,1,0,0,1,.183-1.4l13-10a1,1,0,0,1,1.4.183,1,1,0,0,1-.183,1.4l-13,10A1,1,0,0,1,0,11Z" transform="translate(158.914 632.423)" fill="#fff"/><path d="M13,11a1,1,0,0,1-.609-.207l-13-10A1,1,0,0,1-.793-.61,1,1,0,0,1,.61-.793l13,10A1,1,0,0,1,13,11Z" transform="translate(158.914 642.423)" fill="#fff"/><path d="M37,1H0A1,1,0,0,1-1,0,1,1,0,0,1,0-1H37a1,1,0,0,1,1,1A1,1,0,0,1,37,1Z" transform="translate(158.914 642.423)" fill="#fff"/></g></svg>