<svg xmlns="http://www.w3.org/2000/svg" width="17.736" height="18.924" viewBox="0 0 17.736 18.924"><g transform="translate(-272.279 -90.474)"><path d="M15.736,17.924A1,1,0,0,1,15,17.605L-.732.681A1,1,0,0,1-.681-.732,1,1,0,0,1,.732-.681L16.469,16.244a1,1,0,0,1-.732,1.681Z" transform="translate(273.279 91.474)" fill="#fff"/><path d="M0,17.924a1,1,0,0,1-.681-.268,1,1,0,0,1-.051-1.413L15-.681a1,1,0,0,1,1.413-.051A1,1,0,0,1,16.469.681L.732,17.605A1,1,0,0,1,0,17.924Z" transform="translate(273.279 91.474)" fill="#fff"/></g></svg>