<svg xmlns="http://www.w3.org/2000/svg" width="84" height="60" viewBox="0 0 84 60"><g transform="translate(-276 -360)"><rect width="84" height="60" transform="translate(276 360)" fill="#a5e600"/><g transform="translate(-432.535 85.42)"><rect width="12" height="22" transform="translate(729.535 299.58)" fill="#a5e600"/><path d="M1.78,1.78V20.47h8.9V1.78H1.78M0,0H12.46V22.25H0Z" transform="translate(729.12 299.35)" fill="#fff"/><rect width="12" height="36" transform="translate(744.535 285.58)" fill="#a5e600"/><path d="M1.78,1.78V33.82h8.9V1.78H1.78M0,0H12.46V35.6H0Z" transform="translate(744.25 286)" fill="#fff"/><rect width="12" height="29" transform="translate(759.535 292.58)" fill="#a5e600"/><path d="M1.78,1.78V27.59h8.9V1.78H1.78M0,0H12.46V29.37H0Z" transform="translate(759.38 292.23)" fill="#fff"/><rect width="57" height="8" transform="translate(721.535 317.58)" fill="#a5e600"/><path d="M1.78,1.78V6.23H54.29V1.78H1.78M0,0H56.07V8.01H0Z" transform="translate(722 317.15)" fill="#fff"/></g></g></svg>