<svg xmlns="http://www.w3.org/2000/svg" width="64" height="46.439" viewBox="0 0 64 46.439"><g transform="translate(-437.674 -345.696)"><path d="M39.658,13.147H0V0H38.338L27.749,6.546l11.907,6.6Z" transform="translate(462.016 378.787)" fill="#a5e600"/><path d="M34.01,31.587l-9.15-5.072L33.2,21.361H1.461V31.587H34.01m5.649,1.461H0V19.9H38.338L27.749,26.446Z" transform="translate(462.016 358.887)" fill="#fff"/><ellipse cx="20.909" cy="21.363" rx="20.909" ry="21.363" transform="translate(441.961 349.408)" fill="#a5e600"/><path d="M21.182,1.461a19.727,19.727,0,0,0-7.676,37.893A19.727,19.727,0,0,0,28.858,3.01a19.6,19.6,0,0,0-7.676-1.549m0-1.461A21.182,21.182,0,1,1,0,21.182,21.182,21.182,0,0,1,21.182,0Z" transform="translate(441.564 349.57)" fill="#fff"/><circle cx="9.545" cy="9.545" r="9.545" transform="translate(452.87 361.226)" fill="#a5e600"/><path d="M9.5,1.461A8.035,8.035,0,0,0,3.814,15.177,8.035,8.035,0,1,0,15.177,3.814,7.982,7.982,0,0,0,9.5,1.461M9.5,0A9.5,9.5,0,1,1,0,9.5,9.5,9.5,0,0,1,9.5,0Z" transform="translate(453.251 361.257)" fill="#fff"/><ellipse cx="6.364" cy="6.818" rx="6.364" ry="6.818" transform="translate(456.506 363.953)" fill="#a5e600"/><path d="M6.574,1.461a5.113,5.113,0,1,0,5.113,5.113A5.119,5.119,0,0,0,6.574,1.461M6.574,0A6.574,6.574,0,1,1,0,6.574,6.574,6.574,0,0,1,6.574,0Z" transform="translate(456.172 364.178)" fill="#fff"/><path d="M0,34.263a14.154,14.154,0,0,0,5.97-1.315,15.293,15.293,0,0,0,4.876-3.586,16.851,16.851,0,0,0,3.288-5.319,17.949,17.949,0,0,0,1.2-6.513,17.946,17.946,0,0,0-1.2-6.513A16.844,16.844,0,0,0,10.847,5.7,15.283,15.283,0,0,0,5.97,2.112,14.143,14.143,0,0,0,0,.8V0C8.875,0,16.069,7.849,16.069,17.53S8.875,35.06,0,35.06Z" transform="matrix(-0.819, -0.574, 0.574, -0.819, 451.346, 384.141)" fill="#707070"/><path d="M.365,35.79H0V34.263H.365a13.79,13.79,0,0,0,5.817-1.281,14.931,14.931,0,0,0,4.76-3.5,16.487,16.487,0,0,0,3.216-5.2,17.584,17.584,0,0,0,1.18-6.381,17.584,17.584,0,0,0-1.18-6.381,16.481,16.481,0,0,0-3.216-5.2,14.922,14.922,0,0,0-4.76-3.5A13.78,13.78,0,0,0,.365,1.528H0V0H.365A15.19,15.19,0,0,1,6.773,1.411,16.38,16.38,0,0,1,12,5.253a18,18,0,0,1,3.515,5.687A19.161,19.161,0,0,1,16.8,17.9a19.16,19.16,0,0,1-1.287,6.955A18,18,0,0,1,12,30.538a16.379,16.379,0,0,1-5.224,3.842A15.191,15.191,0,0,1,.365,35.79Zm.365-.8v.066c7.39-.185,13.535-5.978,15-13.628a18.081,18.081,0,0,1-.9,3.114,17.215,17.215,0,0,1-3.359,5.434,15.658,15.658,0,0,1-4.993,3.671A14.513,14.513,0,0,1,.73,34.989ZM.73.8A14.5,14.5,0,0,1,6.489,2.146a15.648,15.648,0,0,1,4.992,3.671A17.209,17.209,0,0,1,14.84,11.25a18.241,18.241,0,0,1,1.215,5.905,17.817,17.817,0,0,0-4.6-11.409A14.984,14.984,0,0,0,.73.735Z" transform="matrix(-0.819, -0.574, 0.574, -0.819, 451.436, 384.65)" fill="#fff"/><path d="M0,27.317a11.285,11.285,0,0,0,4.76-1.048A12.193,12.193,0,0,0,8.648,23.41a13.435,13.435,0,0,0,2.621-4.241,14.31,14.31,0,0,0,.961-5.193,14.308,14.308,0,0,0-.961-5.193A13.429,13.429,0,0,0,8.648,4.543,12.185,12.185,0,0,0,4.76,1.684,11.276,11.276,0,0,0,0,.636V0C7.076,0,12.812,6.258,12.812,13.977S7.076,27.953,0,27.953Z" transform="matrix(-0.819, -0.574, 0.574, -0.819, 453.403, 381.026)" fill="#707070"/><path d="M.365,28.683H0V27.317H.365A10.921,10.921,0,0,0,4.972,26.3a11.831,11.831,0,0,0,3.772-2.775,13.071,13.071,0,0,0,2.55-4.126,13.945,13.945,0,0,0,.936-5.061,13.946,13.946,0,0,0-.936-5.061,13.067,13.067,0,0,0-2.55-4.126A11.823,11.823,0,0,0,4.972,2.381,10.913,10.913,0,0,0,.365,1.366H0V0H.365a12.185,12.185,0,0,1,5.14,1.132,13.133,13.133,0,0,1,4.189,3.08A14.427,14.427,0,0,1,12.511,8.77a15.35,15.35,0,0,1,1.031,5.572,15.35,15.35,0,0,1-1.031,5.572,14.426,14.426,0,0,1-2.817,4.557,13.133,13.133,0,0,1-4.189,3.08A12.185,12.185,0,0,1,.365,28.683Z" transform="matrix(-0.819, -0.574, 0.574, -0.819, 453.493, 381.535)" fill="#fff"/></g></svg>