<svg xmlns="http://www.w3.org/2000/svg" xmlns:xlink="http://www.w3.org/1999/xlink" width="691.439" height="120.377" viewBox="0 0 691.439 120.377"><defs><clipPath id="a"><rect width="691.439" height="120.377" fill="none"/></clipPath></defs><rect width="259.423" height="120.377" transform="translate(0.322)" fill="#008200"/><g clip-path="url(#a)"><path d="M156.069,57.921c0,.69-.272.838-.912.838H153.11c-.789,0-.961-.074-.961-.813V45.966l-3.279,1.75c-.517.271-.887.148-1.159-.419l-.666-1.356a.731.731,0,0,1,.394-1.035l5.127-2.933a2.349,2.349,0,0,1,1.307-.321h1.5c.445,0,.691.148.691.666Z" transform="translate(-75.255 -21.33)" fill="#fff"/><path d="M180.447,53.441c-.764.641-1.479,1.208-2.046,1.676.173-.049,2-.1,3.747-.1h2.465c.616,0,.838.246.838.813v1.676c0,.567-.222.863-.838.863h-9.959c-.74,0-.937-.222-.937-.936V55.955a1.416,1.416,0,0,1,.542-1.306c1.9-1.7,3.821-3.5,5.078-4.758,1.5-1.479,2.539-2.785,2.539-3.845,0-1.332-.986-1.849-2.219-1.849a7.79,7.79,0,0,0-3.55,1.109c-.369.2-.764.271-1.01-.247l-.74-1.577a.689.689,0,0,1,.345-.986,10.544,10.544,0,0,1,5.448-1.6c3.328,0,5.645,1.775,5.645,4.98,0,3.007-3.18,5.768-5.349,7.567" transform="translate(-88.959 -20.941)" fill="#fff"/><path d="M231.08,49.294l-3.722,8.923a.772.772,0,0,1-.838.542h-.912a.9.9,0,0,1-.986-.567l-4.265-8.9h-.049L220.16,58c0,.69-.32.764-.838.764H217.3c-.616,0-.863-.222-.838-.789l.666-15.529c.024-.592.3-.789.765-.789h1.774a.95.95,0,0,1,1.011.666l5.448,11.142h.049l4.93-11.142a1,1,0,0,1,1.01-.666h1.726c.493,0,.665.172.69.617L235.344,58c.025.493-.172.764-.665.764h-2.465c-.641,0-.788-.321-.813-1.01l-.271-8.455Z" transform="translate(-110.847 -21.33)" fill="#fff"/><path d="M264.87,42.269a.831.831,0,0,1,.838-.617h2.612a.831.831,0,0,1,.838.617L275.124,57.9c.173.444.074.863-.444.863H271.92a.889.889,0,0,1-.962-.69l-.986-2.86h-6.089l-.986,2.958a.728.728,0,0,1-.74.592H259.52c-.518,0-.616-.419-.444-.863Zm4.042,9.983L267.359,47.4c-.172-.542-.321-1.01-.444-1.43h-.049c-.123.444-.271.912-.444,1.454l-1.553,4.831Z" transform="translate(-132.631 -21.33)" fill="#fff"/><path d="M309.059,57.9a.878.878,0,0,1,.2.468c0,.2-.1.395-.567.395h-2.662a1.161,1.161,0,0,1-1.109-.542l-3.427-5.251h-1.529v5.1a.6.6,0,0,1-.665.69h-2.563c-.493,0-.69-.222-.69-.715V42.491c0-.666.148-.838.814-.838H300.6c2.1,0,4.61.172,6.113,1.849a5.522,5.522,0,0,1,1.332,3.673,5.3,5.3,0,0,1-2.933,5.029v.049Zm-8.134-13.286h-.962v5.423H301.2a2.591,2.591,0,0,0,2.909-2.785c0-1.947-1.332-2.638-3.18-2.638" transform="translate(-151.601 -21.33)" fill="#fff"/><path d="M338.887,42.719l-.715,2.07c-.123.37-.345.42-.69.271a7.962,7.962,0,0,0-3.475-.838c-2.564,0-4.216,1.972-4.216,5.571,0,3.894,1.874,5.571,4.289,5.571a9.044,9.044,0,0,0,3.328-.69c.345-.123.666-.148.813.3l.616,1.824a.635.635,0,0,1-.369.937,12.448,12.448,0,0,1-4.98.961c-5.225,0-7.888-3.476-7.888-8.776,0-5.325,3.229-9.022,8.184-9.022a10.8,10.8,0,0,1,4.708.986.606.606,0,0,1,.395.838" transform="translate(-166.737 -20.942)" fill="#fff"/><path d="M367.791,48.5V42.293c0-.493.321-.641.764-.641h2.44c.468,0,.715.123.715.641V58.045c0,.517-.222.715-.715.715h-2.44c-.518,0-.764-.173-.764-.715v-6.36h-6.237v6.36c0,.517-.221.715-.715.715H358.4c-.518,0-.764-.173-.764-.715V42.293c0-.493.321-.641.764-.641h2.441c.468,0,.715.123.715.641V48.5Z" transform="translate(-183.141 -21.33)" fill="#fff"/><path d="M84.61,121.6l-5.57,13.354a1.156,1.156,0,0,1-1.254.811H76.42a1.35,1.35,0,0,1-1.476-.848L68.562,121.6h-.073l-.222,13.022c0,1.033-.48,1.144-1.254,1.144H63.988c-.922,0-1.291-.332-1.254-1.18l1-23.24c.037-.886.443-1.181,1.144-1.181H67.53a1.42,1.42,0,0,1,1.513,1L77.2,127.833h.074l7.378-16.673a1.5,1.5,0,0,1,1.513-1h2.582c.738,0,1,.259,1.033.922l1.217,23.535c.037.738-.258,1.144-1,1.144H86.307c-.959,0-1.18-.479-1.218-1.512L84.683,121.6Z" transform="translate(-32.124 -56.413)" fill="#fff"/><path d="M132.489,115.686l-2.177-2.177c-.3-.3-.369-.48-.369-.627s.074-.332.369-.627l2.177-2.177c.3-.295.443-.368.627-.368s.332.074.627.368l2.177,2.177c.295.3.369.48.369.627s-.074.332-.369.627l-2.177,2.177c-.3.295-.443.368-.627.368s-.332-.074-.627-.368m3.431,18.777c0,.738-.332,1.07-1.07,1.07h-3.32c-.775,0-1.144-.258-1.144-1.07V118.527c0-.738.48-.959,1.144-.959h3.32c.7,0,1.07.184,1.07.959Z" transform="translate(-66.543 -56.181)" fill="#fff"/><path d="M155.452,143.717a16.814,16.814,0,0,1-6.16-1.365.8.8,0,0,1-.443-1.107l.738-2.4c.147-.517.443-.812,1.143-.517a13.189,13.189,0,0,0,4.833,1.144c1.291,0,1.992-.48,1.992-1.292,0-.7-.369-1.07-1.734-1.586l-2.766-1.033c-2.509-.922-4.169-2.693-4.169-5.349,0-3.689,3.763-5.459,7.046-5.459a13.366,13.366,0,0,1,5.718,1.18.747.747,0,0,1,.443,1.033l-.775,2.508c-.147.48-.627.517-1.033.369a12.323,12.323,0,0,0-4.279-.959c-1.217,0-1.771.59-1.771,1.18,0,.443.148.923,1.4,1.4l3.136,1.255c2.619,1.033,4.095,2.582,4.095,5.054,0,4.242-3.542,5.939-7.415,5.939" transform="translate(-76.19 -63.886)" fill="#fff"/><path d="M187.731,143.717a16.814,16.814,0,0,1-6.16-1.365.8.8,0,0,1-.443-1.107l.738-2.4c.147-.517.443-.812,1.143-.517a13.189,13.189,0,0,0,4.833,1.144c1.291,0,1.992-.48,1.992-1.292,0-.7-.369-1.07-1.734-1.586l-2.766-1.033c-2.509-.922-4.169-2.693-4.169-5.349,0-3.689,3.763-5.459,7.046-5.459a13.367,13.367,0,0,1,5.718,1.18.747.747,0,0,1,.443,1.033l-.775,2.508c-.147.48-.627.517-1.033.369a12.323,12.323,0,0,0-4.279-.959c-1.217,0-1.771.59-1.771,1.18,0,.443.148.923,1.4,1.4l3.136,1.255c2.619,1.033,4.095,2.582,4.095,5.054,0,4.242-3.542,5.939-7.415,5.939" transform="translate(-92.72 -63.886)" fill="#fff"/><path d="M218.292,115.686l-2.177-2.177c-.3-.3-.369-.48-.369-.627s.074-.332.369-.627l2.177-2.177c.3-.295.443-.368.627-.368s.332.074.627.368l2.177,2.177c.295.3.369.48.369.627s-.074.332-.369.627l-2.177,2.177c-.3.295-.443.368-.627.368s-.332-.074-.627-.368m3.431,18.777c0,.738-.332,1.07-1.07,1.07h-3.32c-.775,0-1.144-.258-1.144-1.07V118.527c0-.738.48-.959,1.144-.959h3.32c.7,0,1.07.184,1.07.959Z" transform="translate(-110.482 -56.181)" fill="#fff"/><path d="M244.248,143.717c-6.234,0-9.148-4.02-9.148-9.517,0-5.423,3.43-9.444,9.406-9.444,6.235,0,9.149,4.021,9.149,9.517,0,5.423-3.43,9.444-9.407,9.444m.184-14.608c-2.73,0-3.615,2.361-3.615,5.054,0,2.73.775,5.2,3.5,5.2s3.615-2.435,3.615-5.128c0-2.73-.774-5.128-3.5-5.128" transform="translate(-120.392 -63.886)" fill="#fff"/><path d="M285.463,142.167c0,.7-.3,1.069-1.033,1.069h-3.468a.923.923,0,0,1-1.033-1v-15.9c0-.7.258-1.069,1.07-1.069h3.025c.553,0,.959.147,1.033.774l.074.775a9.5,9.5,0,0,1,5.9-2.066c4.058,0,5.829,2.545,5.829,6.566V142.13c0,.738-.258,1.107-1.069,1.107H292.4c-.775,0-1.07-.406-1.07-1.107v-9.812c0-1.55-.406-2.582-2.1-2.582a6.219,6.219,0,0,0-3.763,1.438Z" transform="translate(-143.349 -63.886)" fill="#fff"/><path d="M351.76,135.764h-7.526c-.738,0-1.18-.184-1.18-1.143V111.344c0-.812.221-1.181,1.217-1.181H350.1c9.149,0,15.088,3.062,15.088,12.874,0,8.854-5.939,12.727-13.428,12.727m-.775-20.547H348.92v15.567h2.619c3.689,0,7.378-1.586,7.378-7.784,0-5.5-2.73-7.784-7.931-7.784" transform="translate(-175.675 -56.413)" fill="#fff"/><path d="M412.957,142.389a.8.8,0,0,1-.885.849h-1.956c-2.177,0-3.062-.627-3.541-1.7H406.5a7.892,7.892,0,0,1-5.165,2.176c-5.312,0-7.784-4.205-7.784-9.112,0-6.529,4.058-9.849,8.116-9.849a5.529,5.529,0,0,1,4.5,2.065l.11-.811a.79.79,0,0,1,.849-.738h3.32a.814.814,0,0,1,.886.886v12.727c0,.369.148.627.553.627h.3c.517,0,.775.185.775.738Zm-7.157-11.8a5.02,5.02,0,0,0-2.988-1.254c-1.808,0-3.5,1.475-3.5,4.906,0,2.287.59,5.017,3.393,5.017a4.6,4.6,0,0,0,3.1-1.549Z" transform="translate(-201.535 -63.886)" fill="#fff"/><path d="M448.685,126.885a1.283,1.283,0,0,1,1.365-1.07h3.8c.627,0,.738.553.554,1.032l-7.3,18.961c-1.7,4.39-3.91,5.976-8.706,5.976a10.455,10.455,0,0,1-2.214-.222c-.7-.148-.7-.59-.627-1.18l.332-2.324c.11-.738.406-.811.737-.811.369,0,.886.111,1.808.111,2.177,0,3.136-.7,3.763-2.324l.443-1.144-6.825-16.969a.745.745,0,0,1,.665-1.106h4.353a1.042,1.042,0,0,1,1.107.737l3.431,10.919h.111Z" transform="translate(-223.026 -64.429)" fill="#fff"/><rect width="81.445" height="7.518" transform="translate(89.311 95.545)" fill="#fff"/><path d="M602.677,82.236l6.76-16.769a.571.571,0,0,1,.644-.409h.79c.293,0,.5.087.527.5l.7,19.2c0,.323-.146.41-.439.41h-1.2c-.38,0-.439-.233-.439-.438l-.586-15.6h-.029l-6.029,15.686a.48.48,0,0,1-.526.351h-.732a.514.514,0,0,1-.556-.351l-6.439-15.686-.409,15.6c0,.292-.088.438-.439.438h-1.053c-.293,0-.439-.087-.439-.41l.614-19.2c0-.44.2-.5.5-.5h.819a.571.571,0,0,1,.644.409l7.287,16.769Z" transform="translate(-303.559 -33.315)" fill="#fff"/><path d="M646.24,89.835a10.151,10.151,0,0,0,3.6-.644.338.338,0,0,1,.527.2l.2.644a.387.387,0,0,1-.263.556,11.291,11.291,0,0,1-4.244.819c-4.477,0-6.672-3.014-6.672-7.345,0-4.068,2.487-7.317,6.585-7.317,3.482,0,5.444,2.692,5.444,5.97v.644c0,.585-.088.79-.82.79h-9.277c0,3.1,1.551,5.678,4.917,5.678m3.307-7.521c0-2.312-1.17-4.127-3.629-4.127-2.751,0-4.273,2.224-4.536,4.653h8.165Z" transform="translate(-327.426 -39.304)" fill="#fff"/><path d="M675.452,89.835a10.15,10.15,0,0,0,3.6-.644.337.337,0,0,1,.526.2l.2.644a.387.387,0,0,1-.263.556,11.291,11.291,0,0,1-4.244.819c-4.477,0-6.672-3.014-6.672-7.345,0-4.068,2.487-7.317,6.585-7.317,3.482,0,5.444,2.692,5.444,5.97v.644c0,.585-.088.79-.82.79h-9.277c0,3.1,1.551,5.678,4.917,5.678m3.307-7.521c0-2.312-1.17-4.127-3.629-4.127-2.751,0-4.273,2.224-4.536,4.653h8.165Z" transform="translate(-342.385 -39.304)" fill="#fff"/><path d="M700.3,83.062a3.212,3.212,0,0,0,.585,2.341,2.344,2.344,0,0,0,1.727.556,4.979,4.979,0,0,0,1.785-.322q.351-.131.439.176l.176.673c.058.234,0,.381-.293.5a6.877,6.877,0,0,1-2.4.44,4.359,4.359,0,0,1-3.015-1c-.819-.848-.878-2.048-.878-3.658V74.428H696.7c-.2,0-.322-.029-.322-.293v-.79c0-.263.117-.293.322-.293h1.727V69.629c0-.351.058-.468.38-.526l1.025-.146h.117c.234,0,.351.175.351.468v3.629h3.541c.2,0,.322.029.322.293v.79c0,.263-.117.293-.322.293H700.3Z" transform="translate(-356.607 -35.312)" fill="#fff"/><path d="M733.107,83.062a3.212,3.212,0,0,0,.585,2.341,2.344,2.344,0,0,0,1.727.556,4.98,4.98,0,0,0,1.785-.322q.351-.131.439.176l.176.673c.058.234,0,.381-.293.5a6.878,6.878,0,0,1-2.4.44,4.359,4.359,0,0,1-3.015-1c-.819-.848-.878-2.048-.878-3.658V74.428h-1.727c-.2,0-.322-.029-.322-.293v-.79c0-.263.117-.293.322-.293h1.727V69.629c0-.351.059-.468.38-.526l1.025-.146h.117c.234,0,.351.175.351.468v3.629h3.541c.2,0,.321.029.321.293v.79c0,.263-.117.293-.321.293h-3.541Z" transform="translate(-373.408 -35.312)" fill="#fff"/><path d="M753.671,83.974c0,.351-.146.5-.468.5h-.937c-.322,0-.468-.146-.468-.5V64.4c0-.351.059-.468.381-.527l.966-.146c.351-.059.526.059.526.41v7.756a7.555,7.555,0,0,1,4.888-1.815c3.424,0,4.623,2.078,4.623,5.268v8.634c0,.351-.146.5-.468.5h-.937c-.322,0-.469-.146-.469-.5V75.6c0-2.312-.585-4.068-3.219-4.068a7.31,7.31,0,0,0-4.419,1.873Z" transform="translate(-384.988 -32.624)" fill="#fff"/><path d="M788.458,89.835a10.15,10.15,0,0,0,3.6-.644.338.338,0,0,1,.527.2l.2.644a.387.387,0,0,1-.263.556,11.29,11.29,0,0,1-4.244.819c-4.477,0-6.672-3.014-6.672-7.345,0-4.068,2.487-7.317,6.585-7.317,3.482,0,5.444,2.692,5.444,5.97v.644c0,.585-.088.79-.82.79h-9.277c0,3.1,1.551,5.678,4.917,5.678m3.307-7.521c0-2.312-1.171-4.127-3.629-4.127-2.751,0-4.273,2.224-4.536,4.653h8.165Z" transform="translate(-400.255 -39.304)" fill="#fff"/><path d="M826.5,83.062a3.212,3.212,0,0,0,.585,2.341,2.344,2.344,0,0,0,1.727.556,4.979,4.979,0,0,0,1.785-.322q.351-.131.439.176l.176.673c.058.234,0,.381-.293.5a6.877,6.877,0,0,1-2.4.44,4.358,4.358,0,0,1-3.015-1c-.819-.848-.878-2.048-.878-3.658V74.428H822.9c-.2,0-.322-.029-.322-.293v-.79c0-.263.117-.293.322-.293h1.727V69.629c0-.351.059-.468.38-.526l1.025-.146h.117c.234,0,.351.175.351.468v3.629h3.541c.205,0,.322.029.322.293v.79c0,.263-.117.293-.322.293H826.5Z" transform="translate(-421.234 -35.312)" fill="#fff"/><path d="M850.06,89.835a10.15,10.15,0,0,0,3.6-.644.338.338,0,0,1,.527.2l.2.644a.387.387,0,0,1-.263.556,11.291,11.291,0,0,1-4.244.819c-4.477,0-6.672-3.014-6.672-7.345,0-4.068,2.487-7.317,6.585-7.317,3.482,0,5.444,2.692,5.444,5.97v.644c0,.585-.088.79-.82.79h-9.277c0,3.1,1.551,5.678,4.917,5.678m3.307-7.521c0-2.312-1.171-4.127-3.629-4.127-2.751,0-4.273,2.224-4.536,4.653h8.165Z" transform="translate(-431.801 -39.304)" fill="#fff"/><path d="M885.5,90.859c0,.234-.088.293-.351.293H884.3a1.708,1.708,0,0,1-1.346-.439,2.348,2.348,0,0,1-.556-1.668v-.381a5.176,5.176,0,0,1-4.507,2.751c-3.98,0-5.707-3.453-5.707-7.082,0-4.8,2.78-7.58,6.175-7.58a5.139,5.139,0,0,1,4.009,1.844l.03-1.083c0-.351.2-.467.526-.467h.849c.351,0,.468.117.468.467V87.845a5.1,5.1,0,0,0,.117,1.61.589.589,0,0,0,.615.351h.2c.234,0,.322.058.322.322Zm-3.132-10.185a4.345,4.345,0,0,0-3.893-2.458c-2.517,0-4.36,2.253-4.36,6,0,3.717,1.844,5.619,3.922,5.619a4.855,4.855,0,0,0,4.331-3.541Z" transform="translate(-446.637 -39.304)" fill="#fff"/><path d="M906.987,90.655c0,.351-.146.5-.468.5h-.937c-.322,0-.468-.146-.468-.5V77.573c0-.351.146-.527.468-.527h.907c.322,0,.468.176.468.527l.029,1a6.761,6.761,0,0,1,4.537-1.815,4.384,4.384,0,0,1,3.8,1.727,7.8,7.8,0,0,1,4.887-1.727c3.424,0,4.771,2.019,4.771,5.268v8.634c0,.351-.146.5-.468.5h-.937c-.322,0-.468-.146-.468-.5v-8.37c0-2.429-.673-4.068-3.366-4.068a6.763,6.763,0,0,0-3.863,1.433,8.358,8.358,0,0,1,.293,2.371v8.634c0,.351-.146.5-.468.5h-.937c-.322,0-.468-.146-.468-.5v-8.37c0-2.283-.556-4.068-3.19-4.068a6.468,6.468,0,0,0-4.127,1.873Z" transform="translate(-463.5 -39.304)" fill="#fff"/><path d="M953.392,102.776v-1.141c0-.322.146-.468.5-.468h1.493c.351,0,.5.146.5.468v1.258a5.324,5.324,0,0,1-2.078,3.98c-.234.176-.41.2-.585,0l-.2-.234a.342.342,0,0,1,.058-.5,2.573,2.573,0,0,0,.936-1.785,1.1,1.1,0,0,0-.264-.7,1.221,1.221,0,0,1-.351-.878" transform="translate(-487.985 -51.806)" fill="#fff"/><path d="M983.88,89.835a10.15,10.15,0,0,0,3.6-.644.338.338,0,0,1,.527.2l.2.644a.387.387,0,0,1-.263.556,11.291,11.291,0,0,1-4.244.819c-4.477,0-6.672-3.014-6.672-7.345,0-4.068,2.487-7.317,6.585-7.317,3.482,0,5.443,2.692,5.443,5.97v.644c0,.585-.088.79-.82.79h-9.277c0,3.1,1.551,5.678,4.917,5.678m3.307-7.521c0-2.312-1.171-4.127-3.629-4.127-2.751,0-4.273,2.224-4.536,4.653h8.165Z" transform="translate(-500.328 -39.304)" fill="#fff"/><path d="M1006.55,91.109a.7.7,0,0,1-.644.351h-1.083a.286.286,0,0,1-.263-.468l4.8-6.79-4.185-6.38a.286.286,0,0,1,.264-.468h1.142a.7.7,0,0,1,.644.351l3.131,4.858,3.307-4.858a.7.7,0,0,1,.644-.351h1.053a.286.286,0,0,1,.263.468l-4.361,6.117L1016,90.992a.287.287,0,0,1-.264.468h-1.258a.7.7,0,0,1-.644-.351l-3.571-5.531Z" transform="translate(-514.393 -39.612)" fill="#fff"/><path d="M1037.625,89.835a10.152,10.152,0,0,0,3.6-.644.338.338,0,0,1,.527.2l.2.644a.387.387,0,0,1-.263.556,11.292,11.292,0,0,1-4.244.819c-4.477,0-6.673-3.014-6.673-7.345,0-4.068,2.488-7.317,6.585-7.317,3.483,0,5.444,2.692,5.444,5.97v.644c0,.585-.088.79-.82.79h-9.278c0,3.1,1.552,5.678,4.917,5.678m3.307-7.521c0-2.312-1.171-4.127-3.63-4.127-2.75,0-4.272,2.224-4.536,4.653h8.166Z" transform="translate(-527.85 -39.304)" fill="#fff"/><path d="M1070.729,90.04a.411.411,0,0,1-.263.556,8.712,8.712,0,0,1-3.775.819c-4.624,0-6.7-3.1-6.7-7.375,0-4.155,2.517-7.287,6.819-7.287a8.232,8.232,0,0,1,3.658.878.385.385,0,0,1,.2.556l-.175.527c-.088.263-.2.38-.5.263a7.578,7.578,0,0,0-3.22-.79c-2.927,0-4.858,2.254-4.858,5.795,0,3.073,1.258,6.029,4.771,6.029a8.836,8.836,0,0,0,3.395-.7c.234-.117.41-.088.5.2Z" transform="translate(-542.809 -39.304)" fill="#fff"/><path d="M1097.473,90.962c0,.351-.146.5-.469.5h-.907c-.322,0-.468-.146-.468-.5l-.03-1.053A6.82,6.82,0,0,1,1091,91.723a4.458,4.458,0,0,1-3.307-1.171,5.643,5.643,0,0,1-1.317-4.156V77.851c0-.351.146-.5.468-.5h.936c.322,0,.468.146.468.5v8.282a4.759,4.759,0,0,0,.849,3.219,3.115,3.115,0,0,0,2.37.848,6.72,6.72,0,0,0,4.126-1.932V77.851c0-.351.146-.5.468-.5H1097c.322,0,.469.146.469.5Z" transform="translate(-556.325 -39.612)" fill="#fff"/><path d="M1118.074,83.062a3.212,3.212,0,0,0,.585,2.341,2.344,2.344,0,0,0,1.727.556,4.98,4.98,0,0,0,1.785-.322q.351-.131.439.176l.176.673c.058.234,0,.381-.293.5a6.877,6.877,0,0,1-2.4.44,4.358,4.358,0,0,1-3.015-1c-.819-.848-.878-2.048-.878-3.658V74.428h-1.727c-.2,0-.322-.029-.322-.293v-.79c0-.263.117-.293.322-.293h1.727V69.629c0-.351.059-.468.38-.526l1.025-.146h.117c.234,0,.351.175.351.468v3.629h3.541c.2,0,.322.029.322.293v.79c0,.263-.117.293-.322.293h-3.541Z" transform="translate(-570.546 -35.312)" fill="#fff"/><path d="M1141.635,89.835a10.15,10.15,0,0,0,3.6-.644.337.337,0,0,1,.526.2l.2.644a.387.387,0,0,1-.263.556,11.29,11.29,0,0,1-4.244.819c-4.477,0-6.672-3.014-6.672-7.345,0-4.068,2.487-7.317,6.585-7.317,3.482,0,5.444,2.692,5.444,5.97v.644c0,.585-.088.79-.82.79h-9.277c0,3.1,1.551,5.678,4.917,5.678m3.307-7.521c0-2.312-1.171-4.127-3.629-4.127-2.751,0-4.273,2.224-4.536,4.653h8.165Z" transform="translate(-581.113 -39.304)" fill="#fff"/><path d="M1179.507,70.392l-.878-.878a.383.383,0,0,1,0-.644l.878-.878a.383.383,0,0,1,.644,0l.878.878a.383.383,0,0,1,0,.644l-.878.878a.383.383,0,0,1-.644,0m1.258,15.686c0,.351-.146.5-.468.5h-.937c-.321,0-.468-.146-.468-.5V72.967c0-.351.147-.5.468-.5h.937c.321,0,.468.146.468.5Z" transform="translate(-603.475 -34.728)" fill="#fff"/><path d="M1193.822,90.655c0,.351-.146.5-.468.5h-.937c-.322,0-.469-.146-.469-.5V77.573c0-.351.146-.527.5-.527h.878c.323,0,.469.176.469.527l.029,1a7.555,7.555,0,0,1,4.888-1.815c3.424,0,4.624,2.078,4.624,5.268v8.634c0,.351-.146.5-.468.5h-.937c-.322,0-.468-.146-.468-.5v-8.37c0-2.341-.556-4.068-3.248-4.068a7.231,7.231,0,0,0-4.39,1.873Z" transform="translate(-610.385 -39.304)" fill="#fff"/><path d="M1237.438,83.062a3.212,3.212,0,0,0,.585,2.341,2.343,2.343,0,0,0,1.727.556,4.98,4.98,0,0,0,1.785-.322q.351-.131.439.176l.176.673c.058.234,0,.381-.293.5a6.878,6.878,0,0,1-2.4.44,4.359,4.359,0,0,1-3.015-1c-.819-.848-.878-2.048-.878-3.658V74.428h-1.727c-.205,0-.322-.029-.322-.293v-.79c0-.263.117-.293.322-.293h1.727V69.629c0-.351.059-.468.38-.526l1.025-.146h.117c.234,0,.351.175.351.468v3.629h3.541c.2,0,.321.029.321.293v.79c0,.263-.116.293-.321.293h-3.541Z" transform="translate(-631.671 -35.312)" fill="#fff"/><path d="M1261.427,76.753a3.769,3.769,0,0,1,.731.088.3.3,0,0,1,.234.38l-.176.907c-.029.176-.146.263-.38.2a3.61,3.61,0,0,0-.849-.087,3.923,3.923,0,0,0-2.985,1.96V90.655c0,.351-.146.5-.468.5h-.936c-.322,0-.468-.146-.468-.5V77.573c0-.351.146-.526.5-.526h.849c.322,0,.5.175.5.526L1258,78.6a4.161,4.161,0,0,1,3.425-1.844" transform="translate(-643.252 -39.304)" fill="#fff"/><path d="M1284.323,90.859c0,.234-.088.293-.351.293h-.849a1.709,1.709,0,0,1-1.346-.439,2.349,2.349,0,0,1-.556-1.668v-.381a5.176,5.176,0,0,1-4.507,2.751c-3.98,0-5.707-3.453-5.707-7.082,0-4.8,2.78-7.58,6.175-7.58a5.139,5.139,0,0,1,4.009,1.844l.03-1.083c0-.351.2-.467.526-.467h.849c.351,0,.468.117.468.467V87.845a5.1,5.1,0,0,0,.117,1.61.589.589,0,0,0,.615.351h.2c.234,0,.322.058.322.322Zm-3.132-10.185a4.345,4.345,0,0,0-3.892-2.458c-2.517,0-4.36,2.253-4.36,6,0,3.717,1.844,5.619,3.922,5.619a4.855,4.855,0,0,0,4.331-3.541Z" transform="translate(-650.87 -39.304)" fill="#fff"/><path d="M1308.318,84.733c-4.214,0-5.941-3.483-5.941-7.287,0-4.448,2.664-7.375,6.38-7.375a5.329,5.329,0,0,1,3.98,1.785V64.393c0-.351.088-.468.38-.527l.966-.146c.351-.059.527.029.527.351v19.9c0,.381-.176.5-.468.5h-.732c-.41,0-.556-.117-.556-.527l-.029-1.229a5.986,5.986,0,0,1-4.507,2.019m4.419-10.8a4.491,4.491,0,0,0-3.834-2.4c-2.781,0-4.595,2.166-4.595,5.853,0,3.541,1.639,5.883,4.3,5.883a5.394,5.394,0,0,0,4.127-2.224Z" transform="translate(-666.934 -32.621)" fill="#fff"/><path d="M1340.775,89.835a10.15,10.15,0,0,0,3.6-.644.338.338,0,0,1,.527.2l.2.644a.387.387,0,0,1-.263.556,11.291,11.291,0,0,1-4.244.819c-4.477,0-6.672-3.014-6.672-7.345,0-4.068,2.487-7.317,6.585-7.317,3.482,0,5.444,2.692,5.444,5.97v.644c0,.585-.088.79-.82.79h-9.277c0,3.1,1.551,5.678,4.917,5.678m3.307-7.521c0-2.312-1.17-4.127-3.629-4.127-2.751,0-4.273,2.224-4.536,4.653h8.165Z" transform="translate(-683.091 -39.304)" fill="#fff"/><path d="M723.667,162.838c0,.234-.088.293-.352.293h-.848a1.708,1.708,0,0,1-1.346-.439,2.348,2.348,0,0,1-.556-1.668v-.381a5.176,5.176,0,0,1-4.507,2.751c-3.98,0-5.707-3.453-5.707-7.082,0-4.8,2.78-7.58,6.175-7.58a5.139,5.139,0,0,1,4.009,1.844l.03-1.083c0-.351.2-.467.526-.467h.849c.351,0,.468.117.468.467v10.331a5.1,5.1,0,0,0,.117,1.61.589.589,0,0,0,.615.351h.205c.234,0,.322.058.322.322Zm-3.132-10.185a4.345,4.345,0,0,0-3.893-2.458c-2.517,0-4.36,2.253-4.36,6,0,3.717,1.844,5.619,3.922,5.619a4.856,4.856,0,0,0,4.331-3.541Z" transform="translate(-363.764 -76.164)" fill="#fff"/><path d="M745.154,162.634c0,.351-.146.5-.468.5h-.937c-.322,0-.468-.146-.468-.5V149.552c0-.351.146-.527.5-.527h.878c.323,0,.469.176.469.527l.029,1a7.557,7.557,0,0,1,4.888-1.815c3.424,0,4.623,2.079,4.623,5.268v8.634c0,.351-.146.5-.468.5h-.937c-.322,0-.468-.146-.468-.5v-8.37c0-2.341-.556-4.068-3.248-4.068a7.23,7.23,0,0,0-4.39,1.873Z" transform="translate(-380.627 -76.164)" fill="#fff"/><path d="M779.034,156.712c-4.214,0-5.941-3.483-5.941-7.287,0-4.448,2.664-7.375,6.38-7.375a5.33,5.33,0,0,1,3.98,1.785v-7.463c0-.351.088-.468.38-.527l.966-.146c.351-.059.527.029.527.351v19.9c0,.381-.176.5-.468.5h-.732c-.41,0-.556-.117-.556-.527l-.029-1.229a5.987,5.987,0,0,1-4.507,2.019m4.419-10.8a4.491,4.491,0,0,0-3.834-2.4c-2.781,0-4.595,2.166-4.595,5.853,0,3.541,1.639,5.883,4.3,5.883a5.394,5.394,0,0,0,4.127-2.224Z" transform="translate(-395.893 -69.481)" fill="#fff"/><path d="M828.579,162.02a.411.411,0,0,1-.263.556,8.712,8.712,0,0,1-3.775.819c-4.624,0-6.7-3.1-6.7-7.375,0-4.155,2.518-7.287,6.82-7.287a8.225,8.225,0,0,1,3.658.878.386.386,0,0,1,.2.556l-.175.527c-.088.263-.2.38-.5.263a7.571,7.571,0,0,0-3.22-.79c-2.926,0-4.858,2.254-4.858,5.795,0,3.073,1.258,6.029,4.771,6.029a8.836,8.836,0,0,0,3.395-.7c.234-.117.41-.088.5.2Z" transform="translate(-418.807 -76.165)" fill="#fff"/><path d="M849.7,161.815a10.149,10.149,0,0,0,3.6-.644.338.338,0,0,1,.527.2l.2.644a.387.387,0,0,1-.263.556,11.291,11.291,0,0,1-4.244.819c-4.477,0-6.672-3.014-6.672-7.346,0-4.068,2.487-7.317,6.585-7.317,3.482,0,5.444,2.692,5.444,5.971v.644c0,.585-.088.79-.82.79h-9.277c0,3.1,1.551,5.678,4.917,5.678m3.307-7.521c0-2.312-1.17-4.127-3.629-4.127-2.751,0-4.273,2.224-4.536,4.653h8.165Z" transform="translate(-431.616 -76.165)" fill="#fff"/><path d="M875.5,155.953c0,.351-.146.5-.468.5h-.937c-.322,0-.468-.146-.468-.5V136.374c0-.351.059-.468.381-.527l.966-.146c.351-.059.526.059.526.41Z" transform="translate(-447.373 -69.484)" fill="#fff"/><path d="M890.788,161.815a10.15,10.15,0,0,0,3.6-.644.337.337,0,0,1,.526.2l.2.644a.387.387,0,0,1-.263.556,11.291,11.291,0,0,1-4.244.819c-4.477,0-6.672-3.014-6.672-7.346,0-4.068,2.487-7.317,6.585-7.317,3.482,0,5.444,2.692,5.444,5.971v.644c0,.585-.088.79-.82.79h-9.277c0,3.1,1.551,5.678,4.917,5.678m3.307-7.521c0-2.312-1.171-4.127-3.629-4.127-2.751,0-4.273,2.224-4.536,4.653H894.1Z" transform="translate(-452.657 -76.165)" fill="#fff"/><path d="M916.467,155.924c0,.41-.147.527-.556.527h-.732c-.322,0-.468-.088-.468-.439V136.375c0-.351.059-.468.381-.527l.966-.146c.351-.059.526.059.526.41V143.9a6.208,6.208,0,0,1,4.42-1.844c4.156,0,5.911,3.366,5.911,7.287,0,3.98-2.107,7.375-6.2,7.375a5.411,5.411,0,0,1-4.215-1.9Zm.117-2.926a4.726,4.726,0,0,0,4.038,2.254c2.927,0,4.361-2.634,4.361-5.765,0-3.571-1.317-5.941-4.273-5.941a5.946,5.946,0,0,0-4.127,2.019Z" transform="translate(-468.414 -69.484)" fill="#fff"/><path d="M951.5,148.732a3.77,3.77,0,0,1,.731.088.3.3,0,0,1,.234.38l-.176.907c-.029.176-.146.263-.38.2a3.607,3.607,0,0,0-.849-.087,3.923,3.923,0,0,0-2.986,1.96v10.448c0,.351-.146.5-.468.5h-.936c-.323,0-.468-.146-.468-.5V149.552c0-.351.146-.526.5-.526h.849c.322,0,.5.175.5.526l.029,1.024a4.161,4.161,0,0,1,3.425-1.844" transform="translate(-484.54 -76.164)" fill="#fff"/><path d="M974.394,162.838c0,.234-.088.293-.352.293h-.848a1.708,1.708,0,0,1-1.346-.439,2.348,2.348,0,0,1-.556-1.668v-.381a5.176,5.176,0,0,1-4.507,2.751c-3.98,0-5.707-3.453-5.707-7.082,0-4.8,2.78-7.58,6.175-7.58a5.139,5.139,0,0,1,4.009,1.844l.03-1.083c0-.351.2-.467.526-.467h.849c.351,0,.468.117.468.467v10.331a5.1,5.1,0,0,0,.117,1.61.589.589,0,0,0,.615.351h.2c.234,0,.322.058.322.322Zm-3.132-10.185a4.345,4.345,0,0,0-3.892-2.458c-2.517,0-4.36,2.253-4.36,6,0,3.717,1.844,5.619,3.922,5.619a4.855,4.855,0,0,0,4.331-3.541Z" transform="translate(-492.158 -76.164)" fill="#fff"/><path d="M994.931,155.042a3.212,3.212,0,0,0,.585,2.341,2.344,2.344,0,0,0,1.727.556,4.98,4.98,0,0,0,1.785-.322q.351-.131.439.176l.176.673c.058.234,0,.381-.293.5a6.878,6.878,0,0,1-2.4.44,4.358,4.358,0,0,1-3.015-1c-.819-.848-.878-2.048-.878-3.658v-8.341h-1.727c-.2,0-.322-.029-.322-.293v-.79c0-.263.117-.293.322-.293h1.727v-3.424c0-.351.059-.468.38-.526l1.025-.146h.117c.234,0,.351.175.351.468v3.629h3.541c.2,0,.321.029.321.293v.79c0,.263-.117.293-.321.293h-3.541Z" transform="translate(-507.486 -72.172)" fill="#fff"/><path d="M1018.492,161.815a10.149,10.149,0,0,0,3.6-.644.338.338,0,0,1,.527.2l.2.644a.387.387,0,0,1-.263.556,11.291,11.291,0,0,1-4.244.819c-4.477,0-6.673-3.014-6.673-7.346,0-4.068,2.488-7.317,6.585-7.317,3.482,0,5.444,2.692,5.444,5.971v.644c0,.585-.088.79-.82.79h-9.278c0,3.1,1.552,5.678,4.917,5.678m3.307-7.521c0-2.312-1.171-4.127-3.629-4.127-2.751,0-4.273,2.224-4.536,4.653h8.165Z" transform="translate(-518.052 -76.165)" fill="#fff"/><path d="M1061.752,149.493a.352.352,0,0,1,.2.468l-.263.7c-.088.235-.234.263-.439.176a7.65,7.65,0,0,0-3.014-.7c-1.727,0-2.78.908-2.78,2.107,0,1.229.7,1.727,2.078,2.312l2.078.878c1.727.732,3.015,1.873,3.015,3.687,0,2.576-1.961,4.273-5.18,4.273a9.294,9.294,0,0,1-3.8-.907c-.2-.117-.263-.235-.176-.41l.352-.79c.088-.2.234-.263.409-.176a9.012,9.012,0,0,0,3.307.82c1.961,0,3.249-.966,3.249-2.575,0-1.347-.966-2.049-2.459-2.634l-1.756-.7c-1.785-.7-3.014-1.815-3.014-3.541,0-2.429,2.078-3.746,4.682-3.746a8.1,8.1,0,0,1,3.512.761" transform="translate(-539.451 -76.164)" fill="#fff"/><path d="M1089.2,162.941c0,.351-.146.5-.468.5h-.907c-.322,0-.468-.146-.468-.5l-.03-1.053a6.82,6.82,0,0,1-4.595,1.815,4.458,4.458,0,0,1-3.307-1.171,5.642,5.642,0,0,1-1.317-4.155V149.83c0-.352.146-.5.468-.5h.936c.322,0,.468.146.468.5v8.282a4.759,4.759,0,0,0,.849,3.219,3.115,3.115,0,0,0,2.37.848,6.717,6.717,0,0,0,4.126-1.932V149.83c0-.352.146-.5.469-.5h.936c.322,0,.468.146.468.5Z" transform="translate(-552.086 -76.471)" fill="#fff"/><path d="M1118.055,162.02a.411.411,0,0,1-.264.556,8.711,8.711,0,0,1-3.775.819c-4.625,0-6.7-3.1-6.7-7.375,0-4.155,2.518-7.287,6.82-7.287a8.224,8.224,0,0,1,3.658.878.386.386,0,0,1,.205.556l-.175.527c-.088.263-.205.38-.5.263a7.57,7.57,0,0,0-3.22-.79c-2.926,0-4.858,2.254-4.858,5.795,0,3.073,1.258,6.029,4.771,6.029a8.835,8.835,0,0,0,3.395-.7c.234-.117.41-.088.5.2Z" transform="translate(-567.044 -76.165)" fill="#fff"/><path d="M1143.008,162.02a.411.411,0,0,1-.263.556,8.712,8.712,0,0,1-3.775.819c-4.624,0-6.7-3.1-6.7-7.375,0-4.155,2.518-7.287,6.82-7.287a8.225,8.225,0,0,1,3.658.878.386.386,0,0,1,.2.556l-.175.527c-.088.263-.2.38-.5.263a7.572,7.572,0,0,0-3.22-.79c-2.926,0-4.858,2.254-4.858,5.795,0,3.073,1.258,6.029,4.771,6.029a8.837,8.837,0,0,0,3.4-.7c.234-.117.41-.088.5.2Z" transform="translate(-579.823 -76.165)" fill="#fff"/><path d="M1164.128,161.815a10.149,10.149,0,0,0,3.6-.644.338.338,0,0,1,.527.2l.2.644a.387.387,0,0,1-.263.556,11.291,11.291,0,0,1-4.244.819c-4.477,0-6.672-3.014-6.672-7.346,0-4.068,2.487-7.317,6.585-7.317,3.482,0,5.443,2.692,5.443,5.971v.644c0,.585-.088.79-.82.79h-9.277c0,3.1,1.551,5.678,4.917,5.678m3.307-7.521c0-2.312-1.171-4.127-3.629-4.127-2.751,0-4.273,2.224-4.536,4.653h8.165Z" transform="translate(-592.632 -76.165)" fill="#fff"/><path d="M1194.193,149.493a.352.352,0,0,1,.2.468l-.263.7c-.088.235-.234.263-.439.176a7.65,7.65,0,0,0-3.014-.7c-1.727,0-2.78.908-2.78,2.107,0,1.229.7,1.727,2.077,2.312l2.078.878c1.727.732,3.015,1.873,3.015,3.687,0,2.576-1.961,4.273-5.18,4.273a9.294,9.294,0,0,1-3.8-.907c-.2-.117-.263-.235-.176-.41l.352-.79c.088-.2.234-.263.409-.176a9.014,9.014,0,0,0,3.307.82c1.961,0,3.249-.966,3.249-2.575,0-1.347-.966-2.049-2.459-2.634l-1.756-.7c-1.785-.7-3.014-1.815-3.014-3.541,0-2.429,2.078-3.746,4.683-3.746a8.1,8.1,0,0,1,3.512.761" transform="translate(-607.273 -76.164)" fill="#fff"/><path d="M1216.687,149.493a.352.352,0,0,1,.2.468l-.263.7c-.088.235-.234.263-.439.176a7.648,7.648,0,0,0-3.014-.7c-1.727,0-2.78.908-2.78,2.107,0,1.229.7,1.727,2.077,2.312l2.078.878c1.727.732,3.015,1.873,3.015,3.687,0,2.576-1.961,4.273-5.18,4.273a9.293,9.293,0,0,1-3.8-.907c-.205-.117-.264-.235-.176-.41l.351-.79c.088-.2.234-.263.409-.176a9.011,9.011,0,0,0,3.307.82c1.961,0,3.249-.966,3.249-2.575,0-1.347-.966-2.049-2.459-2.634l-1.756-.7c-1.785-.7-3.014-1.815-3.014-3.541,0-2.429,2.078-3.746,4.682-3.746a8.1,8.1,0,0,1,3.512.761" transform="translate(-618.792 -76.164)" fill="#fff"/><path d="M1235.106,175.164c0,.322-.147.468-.5.468h-1.493c-.351,0-.5-.146-.5-.468v-1.551c0-.322.146-.468.5-.468h1.493c.351,0,.5.146.5.468Z" transform="translate(-631.211 -88.666)" fill="#fff"/><path d="M-.66-.66H691.455V120.2H-.66ZM690.136.659H.659v118.22H690.136Z" transform="translate(0.322 0.419)" fill="#fff"/><path d="M.66,119.042H-.66V0H.66Z" transform="translate(259.745 0.916)" fill="#fff"/></g></svg>