<svg xmlns="http://www.w3.org/2000/svg" width="508.16" height="101.284" viewBox="0 0 508.16 101.284"><g transform="translate(-224 -780.716)"><text transform="translate(279.16 849)" fill="#fff" font-size="18" font-family="Gotham-Book, Gotham"><tspan x="0" y="17">Never leave the outlet without making a difference</tspan></text><text transform="translate(272 801)" fill="#a5e600" font-size="40" font-family="HEINEKENCore-Bold, HEINEKEN Core" font-weight="700"><tspan x="17" y="37">ONE GOAL</tspan></text><path d="M7.52,26.1l15.578.452a3.6,3.6,0,0,1,3.945,2.988L36.968,62.42,57.179,2.988C58.016.6,58.974,0,61.6,0h9.806c2.51,0,3.229,1.433,2.51,3.468L43.786,82.274c-.838,2.152-1.794,2.51-4.065,2.51H32.663c-2.032,0-3.348-.358-4.184-2.391L11.618,40.657S5.129,26.1,7.52,26.1" transform="translate(217.009 780.716)" fill="#a5e600"/></g></svg>